<svg width="48" height="38" viewBox="0 0 48 38" fill="none" xmlns="http://www.w3.org/2000/svg">
<g id="van">
<path id="Path" d="M0 14.8994H3V18.2571H0V14.8994Z" fill="#FF5E3A"/>
<path id="Path_2" d="M3 0.352295H6V3.70996H3L3 0.352295Z" fill="#FF5E3A"/>
<path id="Path_3" d="M8.66825 3.53988H10.8513C11.8696 3.53988 12.7629 4.50452 12.7629 5.6042C12.7629 6.74245 11.9552 7.66842 10.9624 7.66842H0V10.8559H17.3438C18.3367 10.8559 19.1444 11.782 19.1444 12.9202C19.1444 14.0585 18.3367 14.9845 17.3438 14.9845H5.5101V18.172H7.7716C8.76444 18.172 9.57222 19.0981 9.57222 20.2363C9.57222 21.3746 8.76444 22.3005 7.7716 22.3005H0V32.804H4.06314C4.17231 28.5479 7.22406 25.1236 10.9624 25.1236C14.7007 25.1236 17.7524 28.548 17.8616 32.804H29.5889C29.648 30.4976 30.571 28.4367 32 27.0315V0.352295H8.66825V3.53988Z" fill="#FF5E3A"/>
<path id="Shape" fill-rule="evenodd" clip-rule="evenodd" d="M32 32.2439C32 29.4673 34.0187 27.2083 36.5 27.2083C38.9813 27.2083 41 29.4673 41 32.2439C41 35.0205 38.9813 37.2795 36.5 37.2795C34.0187 37.2795 32 35.0205 32 32.2439ZM34.9832 30.5466V33.9409H38.0168V30.5466H34.9832Z" fill="#FF5E3A"/>
<path id="Path_4" d="M40.6312 4.82837H35V14.8994H47L40.6312 4.82837Z" fill="#FF5E3A"/>
<path id="Path_5" d="M35 18.2571V25.4124C35.5606 25.2533 36.1476 25.1684 36.7523 25.1684C40.5879 25.1684 43.7191 28.5728 43.8311 32.804H48V18.2571H35Z" fill="#FF5E3A"/>
<path id="Shape_2" fill-rule="evenodd" clip-rule="evenodd" d="M7 32.2439C7 29.4673 9.01873 27.2083 11.5 27.2083C13.9813 27.2083 16 29.4673 16 32.2439C16 35.0205 13.9813 37.2795 11.5 37.2795C9.01873 37.2795 7 35.0205 7 32.2439ZM9.98315 30.5466V33.9409H13.0168V30.5466H9.98315Z" fill="#FF5E3A"/>
</g>
</svg>
